<svg id="Layer_1" data-name="Layer 1" xmlns="http://www.w3.org/2000/svg" viewBox="0 0 547.42 142"><defs><style>.cls-1,.cls-3{fill:#fff;}.cls-2{fill:#d39e46;}.cls-3{font-size:22.84px;font-family:Segoe-Light, Segoe Light;}.cls-4{letter-spacing:0.01em;}.cls-5{letter-spacing:0.01em;}.cls-6{letter-spacing:0em;}.cls-7{letter-spacing:0em;}.cls-8{letter-spacing:-0.01em;}.cls-9{letter-spacing:-0.01em;}.cls-10{letter-spacing:0em;}.cls-11{letter-spacing:0em;}.cls-12{letter-spacing:-0.01em;}</style></defs><title>Logo+Type_horizontal_invers</title><polygon class="cls-1" points="93.38 94.18 103.47 97.46 135.05 53.99 103.47 10.52 93.38 13.79 122.58 53.99 93.38 94.18"/><polygon class="cls-2" points="71.11 0 20 16.61 20 27.21 67.25 11.86 104.09 62.57 110.33 53.99 71.11 0"/><polygon class="cls-2" points="0 44.13 0 97.86 10.09 101.14 10.09 51.47 69.7 32.09 63.47 23.51 0 44.13"/><polygon class="cls-2" points="20 125.39 71.11 142 77.34 133.42 30.09 118.06 30.09 55.39 20 58.66 20 125.39"/><polygon class="cls-2" points="103.47 131.49 135.05 88.01 128.81 79.43 99.61 119.62 40 100.25 40 110.86 103.47 131.49"/><path class="cls-1" d="M347.22,251.83A15.07,15.07,0,0,1,356.3,255l.74.54v-9.89l-.25-.13a21.83,21.83,0,0,0-10-2.11c-6.7,0-12.17,2.08-16.24,6.18s-6.14,9.7-6.14,16.64A20.5,20.5,0,0,0,330.13,281c3.77,3.89,8.79,5.87,14.91,5.87a23.06,23.06,0,0,0,11.77-2.76L357,284v-9.36l-.73.51a16.12,16.12,0,0,1-9.24,3.33,11.67,11.67,0,0,1-8.92-3.48c-2.16-2.32-3.26-5.55-3.26-9.61s1.16-7.47,3.44-9.91A11.71,11.71,0,0,1,347.22,251.83Z" transform="translate(-139.51 -211.64)"/><path class="cls-1" d="M398.86,249.16c-3.64-3.82-8.75-5.76-15.2-5.76-6.78,0-12.2,2-16.1,5.95s-5.88,9.42-5.88,16.28c0,6.46,1.92,11.68,5.7,15.5s8.93,5.77,15.29,5.77c6.6,0,11.92-2,15.81-6s5.86-9.42,5.86-16.09S402.5,253,398.86,249.16Zm-15.63,29.32a10.24,10.24,0,0,1-8.13-3.41c-2-2.28-3-5.56-3-9.76s1-7.67,3-10a10.06,10.06,0,0,1,8.07-3.47,9.84,9.84,0,0,1,7.87,3.32c1.91,2.23,2.88,5.57,2.88,9.92C393.9,274.09,390.41,278.48,383.23,278.48Z" transform="translate(-139.51 -211.64)"/><path class="cls-1" d="M440.19,224.9v23.71c-2.57-3.46-6.34-5.21-11.23-5.21a17.22,17.22,0,0,0-13.87,6.26c-3.44,4.12-5.18,9.66-5.18,16.48,0,6.37,1.59,11.48,4.73,15.16a15.71,15.71,0,0,0,12.54,5.6c5.65,0,10-2.18,13-6.46v5.47h10.08v-61Zm-9.92,53.58a8.77,8.77,0,0,1-7.21-3.28c-1.8-2.2-2.71-5.34-2.71-9.34,0-4.5.93-8,2.76-10.44a9.65,9.65,0,0,1,14.41-.69,9.91,9.91,0,0,1,2.74,7v4.56a13.11,13.11,0,0,1-2.91,8.83A9.07,9.07,0,0,1,430.27,278.48Z" transform="translate(-139.51 -211.64)"/><path class="cls-1" d="M495.85,263.29c0-6.11-1.6-11-4.76-14.54s-7.68-5.35-13.42-5.35a18.85,18.85,0,0,0-14,6c-3.85,4-5.8,9.4-5.8,16.16s1.75,11.91,5.2,15.67,8.38,5.68,14.65,5.68c5.87,0,10.79-1.17,14.62-3.48l.22-.13V274.4l-.73.51a20.21,20.21,0,0,1-11.9,3.8c-7.29,0-11.13-3.4-11.7-10.4h27.59Zm-24.26-9.22a8.46,8.46,0,0,1,6.08-2.56c5.33,0,8,2.94,8.13,9H468.32A12.06,12.06,0,0,1,471.59,254.07Z" transform="translate(-139.51 -211.64)"/><path class="cls-1" d="M613,249.17c-3.46-3.89-8.21-5.87-14.14-5.87s-10.93,2-14.64,5.89-5.56,9.32-5.56,16.14c0,6.32,1.79,11.54,5.31,15.52s8.41,6,14.47,6,11-2,14.47-6.07,5.26-9.25,5.26-15.64C618.15,258.42,616.41,253,613,249.17Zm-14.45,32.6c-4.47,0-7.88-1.45-10.44-4.42s-3.85-7-3.85-11.94c0-5.37,1.32-9.59,3.94-12.56s6.06-4.42,10.51-4.42,7.81,1.38,10.23,4.22,3.64,7,3.64,12.45c0,5.27-1.23,9.42-3.67,12.34S603.08,281.77,598.53,281.77Z" transform="translate(-139.51 -211.64)"/><path class="cls-1" d="M534.9,256,527,244.28H521l10.88,16.27Zm40.61-11.73-21.16,31.5,3.1,4.62,24.12-36.12Zm-50.82,36.09-24.24-36.08h-6.06l27.54,41.23.28.41h5l7.72-11.56-3.08-4.61Z" transform="translate(-139.51 -211.64)"/><polygon class="cls-1" points="401.54 53.51 415.48 32.63 409.43 32.63 395.4 53.51 409.27 74.28 415.49 74.28 401.54 53.51"/><path class="cls-1" d="M682.37,244.28h-6.06L668.44,256l3.06,4.55Zm-10.86,25.47-3.08,4.61,7.45,11.15.28.41h6.22Z" transform="translate(-139.51 -211.64)"/><polygon class="cls-1" points="514.88 32.63 508.82 32.63 522.77 53.51 508.82 74.28 515.04 74.28 528.91 53.51 514.88 32.63"/><path class="cls-1" d="M645.27,244.26a11.53,11.53,0,0,0-4.31-.76,11.11,11.11,0,0,0-7.44,2.75,13.56,13.56,0,0,0-2.93,3.57v-5.54h-5.36v41.64h5.36V266.3c0-5.74,1-10.21,3-13.28s4.28-4.44,7.11-4.44a6.08,6.08,0,0,1,3.65,1.11l1.47,1.06V244.5Z" transform="translate(-139.51 -211.64)"/><text class="cls-3" transform="translate(184.94 110.86)">so<tspan class="cls-4" x="21.58" y="0">f</tspan><tspan class="cls-5" x="28.5" y="0">t</tspan><tspan class="cls-6" x="36.26" y="0">w</tspan><tspan class="cls-7" x="52.98" y="0">a</tspan><tspan class="cls-8" x="63.99" y="0">r</tspan><tspan x="71.23" y="0">e de</tspan><tspan class="cls-9" x="111.83" y="0">v</tspan><tspan class="cls-10" x="122.59" y="0">elopme</tspan><tspan class="cls-11" x="195.43" y="0">n</tspan><tspan x="208.02" y="0">t and </tspan><tspan class="cls-12" x="261.82" y="0">c</tspan><tspan x="271.91" y="0">onsulting</tspan></text></svg>