<svg id="Layer_1" data-name="Layer 1" xmlns="http://www.w3.org/2000/svg" viewBox="0 0 656 230.03"><defs><style>.cls-1{fill:#fff;}.cls-2{fill:#d39e46;}</style></defs><title>Logo</title><polygon class="cls-1" points="151.26 152.56 167.61 157.87 218.77 87.45 167.61 17.04 151.26 22.34 198.57 87.45 151.26 152.56"/><polygon class="cls-2" points="115.19 0 32.4 26.9 32.4 44.08 108.94 19.22 168.62 101.36 178.72 87.45 115.19 0"/><polygon class="cls-2" points="0 71.49 0 158.53 16.34 163.84 16.35 83.37 112.91 51.99 102.81 38.09 0 71.49"/><polygon class="cls-2" points="32.4 203.13 115.19 230.03 125.29 216.13 48.75 191.25 48.75 89.72 32.4 95.03 32.4 203.13"/><polygon class="cls-2" points="167.61 213 218.77 142.57 208.67 128.67 161.37 193.78 64.8 162.41 64.8 179.59 167.61 213"/><path class="cls-1" d="M378.19,194.44A17,17,0,0,1,388.48,198l.84.62V187.43l-.29-.14a24.65,24.65,0,0,0-11.28-2.4c-7.6,0-13.79,2.36-18.41,7s-7,11-7,18.85a23.24,23.24,0,0,0,6.44,16.78c4.27,4.41,10,6.65,16.9,6.65,5.32,0,9.8-1.05,13.34-3.13l.26-.15V220.29l-.83.58A18.29,18.29,0,0,1,378,224.64c-4.26,0-7.66-1.33-10.11-3.95s-3.69-6.28-3.69-10.88,1.31-8.47,3.89-11.23A13.26,13.26,0,0,1,378.19,194.44Z" transform="translate(-102 -121.5)"/><path class="cls-1" d="M436.71,191.41c-4.12-4.32-9.92-6.52-17.22-6.52-7.68,0-13.83,2.27-18.25,6.74s-6.66,10.67-6.66,18.45c0,7.32,2.17,13.23,6.46,17.57s10.12,6.53,17.33,6.53c7.47,0,13.5-2.3,17.91-6.85s6.64-10.68,6.64-18.24C442.92,201.68,440.83,195.73,436.71,191.41ZM419,224.64a11.61,11.61,0,0,1-9.22-3.86c-2.24-2.58-3.37-6.31-3.37-11.06s1.13-8.7,3.36-11.34a11.32,11.32,0,0,1,9.13-3.94,11.17,11.17,0,0,1,8.93,3.77c2.16,2.52,3.26,6.3,3.26,11.24C431.09,219.67,427.13,224.64,419,224.64Z" transform="translate(-102 -121.5)"/><path class="cls-1" d="M483.54,163.92V190.8c-2.91-3.92-7.18-5.91-12.72-5.91A19.53,19.53,0,0,0,455.1,192c-3.89,4.67-5.87,11-5.87,18.68,0,7.22,1.8,13,5.36,17.18a17.78,17.78,0,0,0,14.21,6.34c6.41,0,11.36-2.46,14.74-7.32v6.2H495V163.92ZM472.3,224.64a9.93,9.93,0,0,1-8.17-3.71c-2-2.5-3.07-6.06-3.07-10.59,0-5.09,1.05-9.07,3.13-11.82a10.92,10.92,0,0,1,16.33-.79,11.25,11.25,0,0,1,3.11,8v5.16a14.81,14.81,0,0,1-3.31,10A10.23,10.23,0,0,1,472.3,224.64Z" transform="translate(-102 -121.5)"/><path class="cls-1" d="M546.62,207.43c0-6.93-1.82-12.47-5.39-16.48s-8.71-6.06-15.21-6.06a21.35,21.35,0,0,0-15.83,6.79c-4.36,4.49-6.57,10.65-6.57,18.31s2,13.5,5.88,17.76,9.51,6.43,16.61,6.43c6.65,0,12.23-1.32,16.57-3.94l.25-.15V220l-.83.58a22.94,22.94,0,0,1-13.48,4.31c-8.27,0-12.61-3.86-13.27-11.79h31.27ZM519.13,197a9.61,9.61,0,0,1,6.89-2.9c6,0,9.06,3.33,9.21,10.17H515.42A13.71,13.71,0,0,1,519.13,197Z" transform="translate(-102 -121.5)"/><path class="cls-1" d="M679.36,191.43c-3.92-4.41-9.31-6.65-16-6.65s-12.4,2.24-16.6,6.67-6.29,10.56-6.29,18.29c0,7.16,2,13.08,6,17.59s9.54,6.85,16.4,6.85,12.4-2.32,16.4-6.88,6-10.49,6-17.73C685.22,201.91,683.25,195.81,679.36,191.43ZM663,228.37c-5.07,0-8.94-1.64-11.84-5s-4.37-7.92-4.37-13.53c0-6.08,1.51-10.86,4.47-14.23s6.87-5,11.91-5,8.86,1.56,11.59,4.78,4.13,8,4.13,14.11c0,6-1.4,10.67-4.16,14S668.14,228.37,663,228.37Z" transform="translate(-102 -121.5)"/><path class="cls-1" d="M636.9,185.88l-24,35.7,3.51,5.22,27.33-40.92Zm-57.59,40.9-27.48-40.9H545l31.21,46.73.31.47h5.63L590.88,220l-3.49-5.22Zm11.56-27.61L582,185.88h-6.87l12.32,18.45Z" transform="translate(-102 -121.5)"/><polygon class="cls-1" points="495.84 88.04 511.65 64.38 504.78 64.38 488.89 88.04 504.61 111.58 511.66 111.58 495.84 88.04"/><path class="cls-1" d="M758,185.88h-6.86l-8.93,13.28,3.47,5.17Zm-12.3,28.87L742.2,220l8.44,12.64.31.47h7Z" transform="translate(-102 -121.5)"/><polygon class="cls-1" points="624.29 64.38 617.43 64.38 633.23 88.04 617.42 111.58 624.47 111.58 640.19 88.04 624.29 64.38"/><path class="cls-1" d="M716,185.87a13,13,0,0,0-4.88-.87,12.59,12.59,0,0,0-8.43,3.12,15.26,15.26,0,0,0-3.33,4v-6.29h-6.07v47.2h6.07V210.84c0-6.51,1.16-11.57,3.44-15.05s4.85-5,8.06-5a6.86,6.86,0,0,1,4.13,1.26l1.67,1.2v-7.09Z" transform="translate(-102 -121.5)"/></svg>